# xmcd
#
# Track frame offsets:
#	150
#	16770
#	34568
#	46103
#	59674
#	77155
#	91308
#	103225
#	118522
#	140370
#	150698
#	173705
#	209930
#	221768
#	245482
#	254504
#
# Disc length: 3615 seconds
#
# Revision: 0
# Processed by: cddbd v1.4PL0 Copyright (c) Steve Scherf et al.
# Submitted via: audiograbber 1.81.02
#
DISCID=e20e1d10
DTITLE=Melih Güzel - Sounds Of Anatolia
DYEAR=2000
DGENRE=Country
TTITLE0=Askaroz Deresi (Ey Trabzon)
TTITLE1=Camdan Sakiz Akiyor
TTITLE2=Giydigim Aldir
TTITLE3=Karahisar Kalesi
TTITLE4=Tavas Zeybegi
TTITLE5=Efelerin Efesi (Yoruk Ali)
TTITLE6=Ankara Zeybegi
TTITLE7=Neveser Pasticcio
TTITLE8=Buselik Pasticcio
TTITLE9=Nikriz Pasticcio
TTITLE10=Anadolu Temasi ve Cesitlemeler
TTITLE11=La (A) Huseyni Dizisi Uzerine Deyisler
TTITLE12=Yolculuk (Tren)
TTITLE13=Kent Gurultuleri (Gece)
TTITLE14=Gece Yuruyusu
TTITLE15=Hos Gelisler Ola (Hymn)
EXTD=
EXTT0=
EXTT1=
EXTT2=
EXTT3=
EXTT4=
EXTT5=
EXTT6=
EXTT7=
EXTT8=
EXTT9=
EXTT10=
EXTT11=
EXTT12=
EXTT13=
EXTT14=
EXTT15=
PLAYORDER=
